<svg xmlns="http://www.w3.org/2000/svg" width="1000" height="435" viewBox="0 0 1000 435" role="img" aria-labelledby="title desc"><title id="title">Detecting within-cluster collapse with neighbor distances</title><desc id="desc">Two schematic point clouds with identical intended spread. The left is nearly a line, the right spans two dimensions. Concentric neighborhoods around a query sample expose local spread.</desc><defs><marker id="arrow" markerWidth="8" markerHeight="8" refX="6" refY="4" orient="auto"><path d="M0,0 L8,4 L0,8" fill="#54657c"/></marker></defs><rect width="1000" height="435" rx="18" fill="#f7f9fc"/><text x="32" y="40" fill="#24364b" font-family="Arial, sans-serif" font-size="25" font-weight="700" text-anchor="start">Why give the discriminator neighbor distances?</text><rect x="32" y="64" width="448" height="320" rx="12" fill="#ffffff" stroke="#d9e1ec"/><text x="52" y="99" fill="#24364b" font-family="Arial, sans-serif" font-size="22" font-weight="700" text-anchor="start">Too thin inside the cluster</text><text x="52" y="124" fill="#54657c" font-family="Arial, sans-serif" font-size="16" font-weight="400" text-anchor="start">Many samples; one direction has collapsed.</text><ellipse cx="256" cy="249" rx="122" ry="87" fill="none" stroke="#c2cedc" stroke-width="2" stroke-dasharray="5 6"/><circle cx="266.77" cy="249.00" r="4.2" fill="#537bb5" opacity=".78"/><circle cx="242.24" cy="250.19" r="4.2" fill="#537bb5" opacity=".78"/><circle cx="258.11" cy="246.72" r="4.2" fill="#537bb5" opacity=".78"/><circle cx="273.34" cy="251.14" r="4.2" fill="#537bb5" opacity=".78"/><circle cx="224.18" cy="248.47" r="4.2" fill="#537bb5" opacity=".78"/><circle cx="286.14" cy="247.18" r="4.2" fill="#537bb5" opacity=".78"/><circle cx="245.92" cy="252.56" r="4.2" fill="#537bb5" opacity=".78"/><circle cx="236.77" cy="245.49" r="4.2" fill="#537bb5" opacity=".78"/><circle cx="297.71" cy="250.44" r="4.2" fill="#537bb5" opacity=".78"/><circle cx="212.60" cy="250.70" r="4.2" fill="#537bb5" opacity=".78"/><circle cx="276.92" cy="244.76" r="4.2" fill="#537bb5" opacity=".78"/><circle cx="271.46" cy="253.67" r="4.2" fill="#537bb5" opacity=".78"/><circle cx="209.41" cy="246.44" r="4.2" fill="#537bb5" opacity=".78"/><circle cx="310.66" cy="247.86" r="4.2" fill="#537bb5" opacity=".78"/><circle cx="222.64" cy="253.50" r="4.2" fill="#537bb5" opacity=".78"/><circle cx="248.29" cy="243.36" r="4.2" fill="#537bb5" opacity=".78"/><circle cx="303.31" cy="252.78" r="4.2" fill="#537bb5" opacity=".78"/><circle cx="192.34" cy="249.25" r="4.2" fill="#537bb5" opacity=".78"/><circle cx="302.44" cy="244.62" r="4.2" fill="#537bb5" opacity=".78"/><circle cx="252.89" cy="255.37" r="4.2" fill="#537bb5" opacity=".78"/><circle cx="211.81" cy="243.98" r="4.2" fill="#537bb5" opacity=".78"/><circle cx="326.00" cy="249.89" r="4.2" fill="#537bb5" opacity=".78"/><circle cx="196.69" cy="252.91" r="4.2" fill="#537bb5" opacity=".78"/><circle cx="272.21" cy="242.17" r="4.2" fill="#537bb5" opacity=".78"/><circle cx="293.48" cy="255.20" r="4.2" fill="#537bb5" opacity=".78"/><circle cx="182.72" cy="246.78" r="4.2" fill="#537bb5" opacity=".78"/><circle cx="327.18" cy="245.88" r="4.2" fill="#537bb5" opacity=".78"/><circle cx="225.16" cy="255.99" r="4.2" fill="#537bb5" opacity=".78"/><circle cx="228.48" cy="241.74" r="4.2" fill="#537bb5" opacity=".78"/><circle cx="329.23" cy="252.65" r="4.2" fill="#537bb5" opacity=".78"/><circle cx="174.66" cy="251.03" r="4.2" fill="#537bb5" opacity=".78"/><circle cx="302.23" cy="242.18" r="4.2" fill="#537bb5" opacity=".78"/><circle cx="270.71" cy="257.12" r="4.2" fill="#537bb5" opacity=".78"/><circle cx="186.30" cy="243.88" r="4.2" fill="#537bb5" opacity=".78"/><circle cx="345.16" cy="248.30" r="4.2" fill="#537bb5" opacity=".78"/><circle cx="194.37" cy="255.32" r="4.2" fill="#537bb5" opacity=".78"/><circle cx="256.45" cy="240.27" r="4.2" fill="#537bb5" opacity=".78"/><circle cx="318.67" cy="255.55" r="4.2" fill="#537bb5" opacity=".78"/><circle cx="161.89" cy="248.17" r="4.2" fill="#537bb5" opacity=".78"/><circle cx="332.25" cy="243.51" r="4.2" fill="#537bb5" opacity=".78"/><circle cx="238.65" cy="258.04" r="4.2" fill="#537bb5" opacity=".78"/><circle cx="203.74" cy="241.12" r="4.2" fill="#537bb5" opacity=".78"/><circle cx="351.77" cy="251.49" r="4.2" fill="#537bb5" opacity=".78"/><circle cx="166.62" cy="253.35" r="4.2" fill="#537bb5" opacity=".78"/><circle cx="291.32" cy="239.97" r="4.2" fill="#537bb5" opacity=".78"/><circle cx="294.74" cy="258.02" r="4.2" fill="#537bb5" opacity=".78"/><circle cx="162.14" cy="244.78" r="4.2" fill="#537bb5" opacity=".78"/><circle cx="356.32" cy="246.07" r="4.2" fill="#537bb5" opacity=".78"/><circle cx="202.37" cy="257.68" r="4.2" fill="#537bb5" opacity=".78"/><circle cx="233.50" cy="239.06" r="4.2" fill="#537bb5" opacity=".78"/><circle cx="344.24" cy="254.94" r="4.2" fill="#537bb5" opacity=".78"/><circle cx="147.53" cy="250.28" r="4.2" fill="#537bb5" opacity=".78"/><circle cx="327.53" cy="241.03" r="4.2" fill="#537bb5" opacity=".78"/><circle cx="260.06" cy="259.56" r="4.2" fill="#537bb5" opacity=".78"/><circle cx="177.07" cy="241.41" r="4.2" fill="#537bb5" opacity=".78"/><circle cx="369.32" cy="249.55" r="4.2" fill="#537bb5" opacity=".78"/><circle cx="167.74" cy="255.92" r="4.2" fill="#537bb5" opacity=".78"/><circle cx="271.96" cy="238.15" r="4.2" fill="#537bb5" opacity=".78"/><circle cx="256" cy="249" r="25" fill="none" stroke="#b57a2d" opacity=".7" stroke-width="1.5"/><circle cx="256" cy="249" r="48" fill="none" stroke="#b57a2d" opacity=".7" stroke-width="1.5"/><circle cx="256" cy="249" r="76" fill="none" stroke="#b57a2d" opacity=".7" stroke-width="1.5"/><circle cx="256" cy="249" r="6" fill="#a7651b" stroke="white" stroke-width="2"/><text x="256" y="360" fill="#54657c" font-family="Arial, sans-serif" font-size="15" font-weight="400" text-anchor="middle">One sample • several neighborhood scales</text><rect x="520" y="64" width="448" height="320" rx="12" fill="#ffffff" stroke="#d9e1ec"/><text x="540" y="99" fill="#24364b" font-family="Arial, sans-serif" font-size="22" font-weight="700" text-anchor="start">Spread in both directions</text><text x="540" y="124" fill="#54657c" font-family="Arial, sans-serif" font-size="16" font-weight="400" text-anchor="start">Local neighborhoods reveal the difference.</text><ellipse cx="744" cy="249" rx="122" ry="87" fill="none" stroke="#c2cedc" stroke-width="2" stroke-dasharray="5 6"/><circle cx="754.77" cy="249.00" r="4.2" fill="#537bb5" opacity=".78"/><circle cx="730.24" cy="257.80" r="4.2" fill="#537bb5" opacity=".78"/><circle cx="746.11" cy="232.25" r="4.2" fill="#537bb5" opacity=".78"/><circle cx="761.34" cy="264.79" r="4.2" fill="#537bb5" opacity=".78"/><circle cx="712.18" cy="245.07" r="4.2" fill="#537bb5" opacity=".78"/><circle cx="774.14" cy="235.61" r="4.2" fill="#537bb5" opacity=".78"/><circle cx="733.92" cy="275.19" r="4.2" fill="#537bb5" opacity=".78"/><circle cx="724.77" cy="223.15" r="4.2" fill="#537bb5" opacity=".78"/><circle cx="785.71" cy="259.64" r="4.2" fill="#537bb5" opacity=".78"/><circle cx="700.60" cy="261.51" r="4.2" fill="#537bb5" opacity=".78"/><circle cx="764.92" cy="217.78" r="4.2" fill="#537bb5" opacity=".78"/><circle cx="759.46" cy="283.41" r="4.2" fill="#537bb5" opacity=".78"/><circle cx="697.41" cy="230.15" r="4.2" fill="#537bb5" opacity=".78"/><circle cx="798.66" cy="240.61" r="4.2" fill="#537bb5" opacity=".78"/><circle cx="710.64" cy="282.13" r="4.2" fill="#537bb5" opacity=".78"/><circle cx="736.29" cy="207.47" r="4.2" fill="#537bb5" opacity=".78"/><circle cx="791.31" cy="276.84" r="4.2" fill="#537bb5" opacity=".78"/><circle cx="680.34" cy="250.84" r="4.2" fill="#537bb5" opacity=".78"/><circle cx="790.44" cy="216.73" r="4.2" fill="#537bb5" opacity=".78"/><circle cx="740.89" cy="295.92" r="4.2" fill="#537bb5" opacity=".78"/><circle cx="699.81" cy="212.03" r="4.2" fill="#537bb5" opacity=".78"/><circle cx="814.00" cy="255.58" r="4.2" fill="#537bb5" opacity=".78"/><circle cx="684.69" cy="277.81" r="4.2" fill="#537bb5" opacity=".78"/><circle cx="760.21" cy="198.70" r="4.2" fill="#537bb5" opacity=".78"/><circle cx="781.48" cy="294.68" r="4.2" fill="#537bb5" opacity=".78"/><circle cx="670.72" cy="232.68" r="4.2" fill="#537bb5" opacity=".78"/><circle cx="815.18" cy="226.04" r="4.2" fill="#537bb5" opacity=".78"/><circle cx="713.16" cy="300.45" r="4.2" fill="#537bb5" opacity=".78"/><circle cx="716.48" cy="195.57" r="4.2" fill="#537bb5" opacity=".78"/><circle cx="817.23" cy="275.88" r="4.2" fill="#537bb5" opacity=".78"/><circle cx="662.66" cy="263.97" r="4.2" fill="#537bb5" opacity=".78"/><circle cx="790.23" cy="198.79" r="4.2" fill="#537bb5" opacity=".78"/><circle cx="758.71" cy="308.76" r="4.2" fill="#537bb5" opacity=".78"/><circle cx="674.30" cy="211.31" r="4.2" fill="#537bb5" opacity=".78"/><circle cx="833.16" cy="243.84" r="4.2" fill="#537bb5" opacity=".78"/><circle cx="682.37" cy="295.52" r="4.2" fill="#537bb5" opacity=".78"/><circle cx="744.45" cy="184.74" r="4.2" fill="#537bb5" opacity=".78"/><circle cx="806.67" cy="297.24" r="4.2" fill="#537bb5" opacity=".78"/><circle cx="649.89" cy="242.91" r="4.2" fill="#537bb5" opacity=".78"/><circle cx="820.25" cy="208.59" r="4.2" fill="#537bb5" opacity=".78"/><circle cx="726.65" cy="315.59" r="4.2" fill="#537bb5" opacity=".78"/><circle cx="691.74" cy="191.01" r="4.2" fill="#537bb5" opacity=".78"/><circle cx="839.77" cy="267.33" r="4.2" fill="#537bb5" opacity=".78"/><circle cx="654.62" cy="281.03" r="4.2" fill="#537bb5" opacity=".78"/><circle cx="779.32" cy="182.47" r="4.2" fill="#537bb5" opacity=".78"/><circle cx="782.74" cy="315.45" r="4.2" fill="#537bb5" opacity=".78"/><circle cx="650.14" cy="217.94" r="4.2" fill="#537bb5" opacity=".78"/><circle cx="844.32" cy="227.40" r="4.2" fill="#537bb5" opacity=".78"/><circle cx="690.37" cy="312.90" r="4.2" fill="#537bb5" opacity=".78"/><circle cx="721.50" cy="175.84" r="4.2" fill="#537bb5" opacity=".78"/><circle cx="832.24" cy="292.77" r="4.2" fill="#537bb5" opacity=".78"/><circle cx="635.53" cy="258.44" r="4.2" fill="#537bb5" opacity=".78"/><circle cx="815.53" cy="190.32" r="4.2" fill="#537bb5" opacity=".78"/><circle cx="748.06" cy="326.74" r="4.2" fill="#537bb5" opacity=".78"/><circle cx="665.07" cy="193.07" r="4.2" fill="#537bb5" opacity=".78"/><circle cx="857.32" cy="253.05" r="4.2" fill="#537bb5" opacity=".78"/><circle cx="655.74" cy="299.92" r="4.2" fill="#537bb5" opacity=".78"/><circle cx="759.96" cy="169.12" r="4.2" fill="#537bb5" opacity=".78"/><circle cx="744" cy="249" r="25" fill="none" stroke="#b57a2d" opacity=".7" stroke-width="1.5"/><circle cx="744" cy="249" r="48" fill="none" stroke="#b57a2d" opacity=".7" stroke-width="1.5"/><circle cx="744" cy="249" r="76" fill="none" stroke="#b57a2d" opacity=".7" stroke-width="1.5"/><circle cx="744" cy="249" r="6" fill="#a7651b" stroke="white" stroke-width="2"/><text x="744" y="360" fill="#54657c" font-family="Arial, sans-serif" font-size="15" font-weight="400" text-anchor="middle">One sample • several neighborhood scales</text><text x="32" y="413" fill="#54657c" font-family="Arial, sans-serif" font-size="14" font-weight="400" text-anchor="start">Schematic illustration. Dashed ellipses show the same intended spread; dots are illustrative.</text></svg>